<svg width="43" height="53" viewBox="0 0 43 53" fill="none" xmlns="http://www.w3.org/2000/svg">
<path d="M9.77273 24.4595H33.2273C33.7456 24.4595 34.2428 24.2447 34.6093 23.8624C34.9759 23.4802 35.1818 22.9617 35.1818 22.421V10.1903C35.1818 9.64964 34.9759 9.13114 34.6093 8.74886C34.2428 8.36657 33.7456 8.15181 33.2273 8.15181H9.77273C9.25435 8.15181 8.7572 8.36657 8.39066 8.74886C8.02411 9.13114 7.81818 9.64964 7.81818 10.1903V22.421C7.81818 22.9617 8.02411 23.4802 8.39066 23.8624C8.7572 24.2447 9.25435 24.4595 9.77273 24.4595ZM11.7273 12.2287H31.2727V20.3826H11.7273V12.2287ZM39.0909 0H3.90909C2.87269 0.00121396 1.87908 0.431135 1.14623 1.19544C0.413388 1.95975 0.00116398 2.99603 0 4.07692V48.9231C0.00116398 50.004 0.413388 51.0402 1.14623 51.8046C1.87908 52.5689 2.87269 52.9988 3.90909 53H39.0909C40.1273 52.9988 41.1209 52.5689 41.8538 51.8046C42.5866 51.0402 42.9988 50.004 43 48.9231V4.07692C42.9988 2.99603 42.5866 1.95975 41.8538 1.19544C41.1209 0.431135 40.1273 0.00121396 39.0909 0ZM39.0909 48.9231L3.90909 48.9256V4.07692H39.0909V48.9231ZM24.4318 31.5941C24.4318 32.1989 24.2599 32.79 23.9377 33.2929C23.6156 33.7957 23.1577 34.1876 22.622 34.4191C22.0862 34.6505 21.4967 34.711 20.928 34.5931C20.3593 34.4751 19.8369 34.1839 19.4269 33.7562C19.0169 33.3286 18.7376 32.7838 18.6245 32.1906C18.5114 31.5975 18.5695 30.9827 18.7914 30.424C19.0133 29.8653 19.389 29.3877 19.8712 29.0517C20.3533 28.7158 20.9201 28.5364 21.5 28.5364C22.2773 28.5374 23.0225 28.8598 23.5721 29.433C24.1217 30.0063 24.4309 30.7835 24.4318 31.5941ZM24.4318 41.7864C24.4318 42.3912 24.2599 42.9823 23.9377 43.4852C23.6156 43.988 23.1577 44.3799 22.622 44.6114C22.0862 44.8428 21.4967 44.9033 20.928 44.7854C20.3593 44.6674 19.8369 44.3762 19.4269 43.9485C19.0169 43.5209 18.7376 42.9761 18.6245 42.3829C18.5114 41.7898 18.5695 41.175 18.7914 40.6163C19.0133 40.0576 19.389 39.58 19.8712 39.244C20.3533 38.9081 20.9201 38.7287 21.5 38.7287C22.2773 38.7297 23.0225 39.0521 23.5721 39.6254C24.1217 40.1986 24.4309 40.9758 24.4318 41.7864ZM14.6591 31.5941C14.6591 32.1989 14.4871 32.79 14.165 33.2929C13.8428 33.7957 13.3849 34.1876 12.8492 34.4191C12.3135 34.6505 11.724 34.711 11.1553 34.5931C10.5866 34.4751 10.0642 34.1839 9.65416 33.7562C9.24414 33.3286 8.96491 32.7838 8.85179 32.1906C8.73866 31.5975 8.79672 30.9827 9.01863 30.424C9.24053 29.8653 9.61631 29.3877 10.0984 29.0517C10.5806 28.7158 11.1474 28.5364 11.7273 28.5364C12.5046 28.5374 13.2498 28.8598 13.7994 29.433C14.349 30.0063 14.6582 30.7835 14.6591 31.5941ZM14.6591 41.7864C14.6591 42.3912 14.4871 42.9823 14.165 43.4852C13.8428 43.988 13.3849 44.3799 12.8492 44.6114C12.3135 44.8428 11.724 44.9033 11.1553 44.7854C10.5866 44.6674 10.0642 44.3762 9.65416 43.9485C9.24414 43.5209 8.96491 42.9761 8.85179 42.3829C8.73866 41.7898 8.79672 41.175 9.01863 40.6163C9.24053 40.0576 9.61631 39.58 10.0984 39.244C10.5806 38.9081 11.1474 38.7287 11.7273 38.7287C12.5046 38.7297 13.2498 39.0521 13.7994 39.6254C14.349 40.1986 14.6582 40.9758 14.6591 41.7864ZM34.2045 31.5941C34.2045 32.1989 34.0326 32.79 33.7104 33.2929C33.3883 33.7957 32.9304 34.1876 32.3947 34.4191C31.859 34.6505 31.2695 34.711 30.7008 34.5931C30.132 34.4751 29.6096 34.1839 29.1996 33.7562C28.7896 33.3286 28.5104 32.7838 28.3972 32.1906C28.2841 31.5975 28.3422 30.9827 28.5641 30.424C28.786 29.8653 29.1618 29.3877 29.6439 29.0517C30.126 28.7158 30.6929 28.5364 31.2727 28.5364C32.05 28.5374 32.7952 28.8598 33.3448 29.433C33.8945 30.0063 34.2036 30.7835 34.2045 31.5941ZM34.2045 41.7864C34.2045 42.3912 34.0326 42.9823 33.7104 43.4852C33.3883 43.988 32.9304 44.3799 32.3947 44.6114C31.859 44.8428 31.2695 44.9033 30.7008 44.7854C30.132 44.6674 29.6096 44.3762 29.1996 43.9485C28.7896 43.5209 28.5104 42.9761 28.3972 42.3829C28.2841 41.7898 28.3422 41.175 28.5641 40.6163C28.786 40.0576 29.1618 39.58 29.6439 39.244C30.126 38.9081 30.6929 38.7287 31.2727 38.7287C32.05 38.7297 32.7952 39.0521 33.3448 39.6254C33.8945 40.1986 34.2036 40.9758 34.2045 41.7864Z" fill="black"/>
</svg>
