<svg width="175" height="175" viewBox="0 0 175 175" fill="none" xmlns="http://www.w3.org/2000/svg">
<rect width="175" height="175" rx="20" fill="#033498"/>
<path d="M110.16 73.4235C110.763 74.027 111.101 74.8451 111.101 75.6981C111.101 76.5511 110.763 77.3691 110.16 77.9727L101.577 86.556C100.973 87.1588 100.155 87.4973 99.3022 87.4973C98.4492 87.4973 97.6311 87.1588 97.0276 86.556L92.7359 82.2643C92.4197 81.9697 92.166 81.6143 91.9901 81.2195C91.8142 80.8246 91.7196 80.3984 91.712 79.9662C91.7043 79.5341 91.7838 79.1048 91.9457 78.704C92.1076 78.3032 92.3486 77.9391 92.6542 77.6335C92.9599 77.3278 93.3239 77.0869 93.7247 76.925C94.1255 76.7631 94.5548 76.6836 94.987 76.6912C95.4192 76.6988 95.8454 76.7934 96.2402 76.9694C96.635 77.1453 96.9904 77.3989 97.2851 77.7152L99.3022 79.7322L105.611 73.4235C106.214 72.8207 107.033 72.4822 107.885 72.4822C108.738 72.4822 109.557 72.8207 110.16 73.4235V73.4235ZM110.16 101.577C110.476 101.282 110.73 100.927 110.906 100.532C111.082 100.137 111.176 99.7109 111.184 99.2787C111.192 98.8466 111.112 98.4173 110.95 98.0165C110.788 97.6157 110.547 97.2516 110.242 96.946C109.936 96.6403 109.572 96.3994 109.171 96.2375C108.77 96.0756 108.341 95.9961 107.909 96.0037C107.477 96.0113 107.051 96.1059 106.656 96.2819C106.261 96.4578 105.906 96.7114 105.611 97.0277L99.3022 103.336L97.2851 101.319C96.9904 101.003 96.635 100.749 96.2402 100.574C95.8454 100.398 95.4192 100.303 94.987 100.295C94.5548 100.288 94.1255 100.367 93.7247 100.529C93.3239 100.691 92.9599 100.932 92.6542 101.238C92.3486 101.543 92.1076 101.907 91.9457 102.308C91.7838 102.709 91.7043 103.138 91.712 103.57C91.7196 104.003 91.8142 104.429 91.9901 104.824C92.166 105.218 92.4197 105.574 92.7359 105.869L97.0276 110.16C97.6311 110.763 98.4492 111.102 99.3022 111.102C100.155 111.102 100.973 110.763 101.577 110.16L110.16 101.577ZM66.0417 79.9897C66.0417 79.1361 66.3809 78.3174 66.9845 77.7138C67.5881 77.1101 68.4068 76.771 69.2605 76.771H84.2813C85.135 76.771 85.9537 77.1101 86.5573 77.7138C87.161 78.3174 87.5001 79.1361 87.5001 79.9897C87.5001 80.8434 87.161 81.6621 86.5573 82.2657C85.9537 82.8694 85.135 83.2085 84.2813 83.2085H69.2605C68.4068 83.2085 67.5881 82.8694 66.9845 82.2657C66.3809 81.6621 66.0417 80.8434 66.0417 79.9897ZM69.2605 100.375C68.4068 100.375 67.5881 100.714 66.9845 101.318C66.3809 101.922 66.0417 102.74 66.0417 103.594C66.0417 104.448 66.3809 105.266 66.9845 105.87C67.5881 106.474 68.4068 106.813 69.2605 106.813H84.2813C85.135 106.813 85.9537 106.474 86.5573 105.87C87.161 105.266 87.5001 104.448 87.5001 103.594C87.5001 102.74 87.161 101.922 86.5573 101.318C85.9537 100.714 85.135 100.375 84.2813 100.375H69.2605ZM104.607 53.1668C104.343 50.8064 103.218 48.626 101.448 47.0425C99.6775 45.459 97.3857 44.5836 95.0105 44.5835H79.9897C77.6145 44.5836 75.3227 45.459 73.5523 47.0425C71.782 48.626 70.6574 50.8064 70.3935 53.1668H62.823C60.262 53.1668 57.8059 54.1842 55.995 55.9951C54.1841 57.806 53.1667 60.2621 53.1667 62.8231V120.761C53.1667 123.322 54.1841 125.778 55.995 127.589C57.8059 129.399 60.262 130.417 62.823 130.417H112.177C113.445 130.417 114.701 130.167 115.872 129.682C117.044 129.197 118.108 128.485 119.005 127.589C119.902 126.692 120.613 125.627 121.098 124.456C121.584 123.284 121.833 122.029 121.833 120.761V62.8231C121.833 61.555 121.584 60.2993 121.098 59.1278C120.613 57.9562 119.902 56.8917 119.005 55.9951C118.108 55.0984 117.044 54.3871 115.872 53.9019C114.701 53.4166 113.445 53.1668 112.177 53.1668H104.607ZM79.9897 63.896H95.0105C98.358 63.896 101.306 62.1922 103.04 59.6043H112.177C113.031 59.6043 113.85 59.9434 114.453 60.5471C115.057 61.1507 115.396 61.9694 115.396 62.8231V120.761C115.396 121.614 115.057 122.433 114.453 123.037C113.85 123.64 113.031 123.979 112.177 123.979H62.823C61.9693 123.979 61.1506 123.64 60.547 123.037C59.9434 122.433 59.6042 121.614 59.6042 120.761V62.8231C59.6042 61.9694 59.9434 61.1507 60.547 60.5471C61.1506 59.9434 61.9693 59.6043 62.823 59.6043H71.96C73.6938 62.1922 76.6422 63.896 79.9897 63.896ZM79.9897 51.021H95.0105C95.8642 51.021 96.6829 51.3601 97.2865 51.9637C97.8901 52.5674 98.2292 53.3861 98.2292 54.2397C98.2292 55.0934 97.8901 55.9121 97.2865 56.5157C96.6829 57.1194 95.8642 57.4585 95.0105 57.4585H79.9897C79.136 57.4585 78.3173 57.1194 77.7137 56.5157C77.11 55.9121 76.7709 55.0934 76.7709 54.2397C76.7709 53.3861 77.11 52.5674 77.7137 51.9637C78.3173 51.3601 79.136 51.021 79.9897 51.021Z" fill="white"/>
</svg>
