<svg width="175" height="175" viewBox="0 0 175 175" fill="none" xmlns="http://www.w3.org/2000/svg">
<rect width="175" height="175" rx="20" fill="#033498"/>
<path d="M118.5 81.25L129.75 101.5L118.5 103.75V117.25H111.75L98.25 115L96 130.75H62.25L57.75 107.393C50.82 100.832 46.5 91.546 46.5 81.25C46.5 61.3667 62.6168 45.25 82.5 45.25C102.383 45.25 118.5 61.3667 118.5 81.25Z" stroke="white" stroke-width="7" stroke-linecap="round" stroke-linejoin="round"/>
<path d="M71.25 76.75C71.25 74.525 71.9098 72.3499 73.146 70.4998C74.3821 68.6498 76.1391 67.2078 78.1948 66.3564C80.2505 65.5049 82.5125 65.2821 84.6948 65.7162C86.8771 66.1503 88.8816 67.2217 90.455 68.7951C92.0283 70.3684 93.0998 72.373 93.5338 74.5552C93.9679 76.7375 93.7451 78.9995 92.8936 81.0552C92.0422 83.1109 90.6002 84.8679 88.7502 86.104C86.9001 87.3402 84.725 88 82.5 88V94.75" stroke="white" stroke-width="7" stroke-linecap="round" stroke-linejoin="round"/>
<path d="M82.5 108.25V110.5" stroke="white" stroke-width="7" stroke-linecap="round" stroke-linejoin="round"/>
</svg>
