<svg width="175" height="175" viewBox="0 0 175 175" fill="none" xmlns="http://www.w3.org/2000/svg">
<rect width="175" height="175" rx="20" fill="#033498"/>
<path d="M53.9049 112.081C54.5601 112.739 55.0622 113.533 55.3753 114.407C55.6885 115.281 55.805 116.213 55.7166 117.137C55.2729 121.414 54.4318 125.641 53.2042 129.762C62.0101 127.723 67.3884 125.362 69.8313 124.125C71.2169 123.423 72.8126 123.257 74.3132 123.658C78.6147 124.805 83.0482 125.382 87.5 125.375C112.725 125.375 131.688 107.656 131.688 87.5C131.688 67.3505 112.725 49.625 87.5 49.625C62.2752 49.625 43.3125 67.3505 43.3125 87.5C43.3125 96.7668 47.2073 105.364 53.9049 112.081ZM50.7928 136.731C49.2972 137.028 47.7967 137.299 46.292 137.546C45.0295 137.748 44.07 136.434 44.5687 135.26C45.1292 133.939 45.6429 132.597 46.1089 131.239L46.1279 131.176C47.6934 126.631 48.9685 121.404 49.4356 116.538C41.6902 108.773 37 98.61 37 87.5C37 63.0959 59.6114 43.3125 87.5 43.3125C115.389 43.3125 138 63.0959 138 87.5C138 111.904 115.389 131.688 87.5 131.688C82.4983 131.694 77.5173 131.045 72.6846 129.756C69.4021 131.416 62.3384 134.44 50.7928 136.731V136.731Z" fill="white"/>
<path d="M81.6043 79.6726C80.3746 77.7577 78.5567 76.2936 76.4237 75.5004C74.2907 74.7072 71.9578 74.6277 69.7758 75.274C67.5938 75.9202 65.6804 77.2571 64.3233 79.0839C62.9662 80.9107 62.2387 83.1287 62.2501 85.4043C62.2513 87.2888 62.7584 89.1385 63.7187 90.76C64.6789 92.3815 66.057 93.7154 67.7089 94.6223C69.3608 95.5292 71.226 95.9758 73.1095 95.9156C74.9931 95.8553 76.8259 95.2904 78.4164 94.2797C77.5895 96.7353 76.0493 99.355 73.5116 101.981C73.0261 102.483 72.76 103.158 72.7719 103.856C72.7777 104.202 72.8516 104.543 72.9894 104.861C73.1272 105.178 73.3261 105.465 73.5748 105.705C73.8234 105.946 74.1171 106.135 74.4388 106.262C74.7606 106.389 75.1042 106.451 75.45 106.445C76.1485 106.433 76.8136 106.144 77.2991 105.642C86.6795 95.921 85.4612 85.3538 81.6043 79.6852V79.6726ZM106.854 79.6726C105.625 77.7577 103.807 76.2936 101.674 75.5004C99.5407 74.7072 97.2078 74.6277 95.0258 75.274C92.8438 75.9202 90.9304 77.2571 89.5733 79.0839C88.2162 80.9107 87.4887 83.1287 87.5001 85.4043C87.5013 87.2888 88.0084 89.1385 88.9687 90.76C89.9289 92.3815 91.307 93.7154 92.9589 94.6223C94.6108 95.5292 96.476 95.9758 98.3595 95.9156C100.243 95.8553 102.076 95.2904 103.666 94.2797C102.84 96.7353 101.299 99.355 98.7616 101.981C98.5212 102.23 98.3322 102.523 98.2052 102.845C98.0783 103.167 98.016 103.51 98.0219 103.856C98.0277 104.202 98.1016 104.543 98.2394 104.861C98.3772 105.178 98.5761 105.465 98.8248 105.705C99.0734 105.946 99.367 106.135 99.6888 106.262C100.011 106.389 100.354 106.451 100.7 106.445C101.046 106.439 101.387 106.365 101.704 106.228C102.022 106.09 102.309 105.891 102.549 105.642C111.93 95.921 110.711 85.3538 106.854 79.6852V79.6726Z" fill="white"/>
</svg>
