<svg width="175" height="175" viewBox="0 0 175 175" fill="none" xmlns="http://www.w3.org/2000/svg">
<rect width="175" height="175" rx="20" fill="#033498"/>
<path d="M103.844 68.8594V64.2656C103.844 63.8445 103.499 63.5 103.078 63.5H66.3281C65.907 63.5 65.5625 63.8445 65.5625 64.2656V68.8594C65.5625 69.2805 65.907 69.625 66.3281 69.625H103.078C103.499 69.625 103.844 69.2805 103.844 68.8594ZM66.3281 77.2812C65.907 77.2812 65.5625 77.6258 65.5625 78.0469V82.6406C65.5625 83.0617 65.907 83.4062 66.3281 83.4062H83.9375C84.3586 83.4062 84.7031 83.0617 84.7031 82.6406V78.0469C84.7031 77.6258 84.3586 77.2812 83.9375 77.2812H66.3281ZM80.1094 120.539H57.9062V53.1641H111.5V86.0859C111.5 86.507 111.845 86.8516 112.266 86.8516H117.625C118.046 86.8516 118.391 86.507 118.391 86.0859V49.3359C118.391 47.642 117.022 46.2734 115.328 46.2734H54.0781C52.3842 46.2734 51.0156 47.642 51.0156 49.3359V124.367C51.0156 126.061 52.3842 127.43 54.0781 127.43H80.1094C80.5305 127.43 80.875 127.085 80.875 126.664V121.305C80.875 120.884 80.5305 120.539 80.1094 120.539ZM122.764 125.468L113.835 116.539C115.969 113.715 117.242 110.194 117.242 106.375C117.242 97.0727 109.701 89.5312 100.398 89.5312C91.0961 89.5312 83.5547 97.0727 83.5547 106.375C83.5547 115.677 91.0961 123.219 100.398 123.219C103.825 123.219 107.002 122.195 109.662 120.443L118.726 129.506C118.879 129.66 119.07 129.727 119.262 129.727C119.453 129.727 119.654 129.65 119.797 129.506L122.764 126.54C122.835 126.469 122.891 126.386 122.929 126.294C122.967 126.202 122.987 126.103 122.987 126.004C122.987 125.904 122.967 125.805 122.929 125.714C122.891 125.622 122.835 125.538 122.764 125.468ZM100.398 117.094C94.4744 117.094 89.6797 112.299 89.6797 106.375C89.6797 100.451 94.4744 95.6562 100.398 95.6562C106.322 95.6562 111.117 100.451 111.117 106.375C111.117 112.299 106.322 117.094 100.398 117.094Z" fill="white"/>
</svg>
